<svg width="12" height="10" viewBox="0 0 12 10" fill="none" xmlns="http://www.w3.org/2000/svg">
<path fill-rule="evenodd" clip-rule="evenodd" d="M7.34687 0.616429C7.44873 0.531596 7.5801 0.490684 7.71212 0.502685C7.84413 0.514686 7.96598 0.578619 8.05087 0.680429L11.3839 4.68043C11.465 4.78268 11.5029 4.91261 11.4896 5.04245C11.4762 5.17229 11.4126 5.29176 11.3123 5.37532C11.212 5.45888 11.083 5.49992 10.9529 5.48966C10.8228 5.47941 10.7018 5.41867 10.6159 5.32043L7.28287 1.32043C7.19804 1.21857 7.15712 1.08719 7.16912 0.95518C7.18113 0.823166 7.24506 0.70132 7.34687 0.616429Z" fill="black"/>
<path fill-rule="evenodd" clip-rule="evenodd" d="M7.34687 9.3842C7.24506 9.29931 7.18113 9.17747 7.16912 9.04545C7.15712 8.91344 7.19804 8.78206 7.28287 8.6802L10.6159 4.6802C10.7018 4.58196 10.8228 4.52122 10.9529 4.51097C11.083 4.50071 11.212 4.54175 11.3123 4.62531C11.4126 4.70887 11.4762 4.82834 11.4896 4.95818C11.5029 5.08802 11.465 5.21795 11.3839 5.3202L8.05087 9.3202C7.96598 9.42201 7.84413 9.48594 7.71212 9.49795C7.5801 9.50995 7.44873 9.46903 7.34687 9.3842Z" fill="black"/>
<path fill-rule="evenodd" clip-rule="evenodd" d="M11 5C11 5.13261 10.9473 5.25979 10.8536 5.35355C10.7598 5.44732 10.6326 5.5 10.5 5.5L1 5.5C0.867392 5.5 0.740214 5.44732 0.646446 5.35355C0.552678 5.25979 0.5 5.13261 0.5 5C0.5 4.86739 0.552678 4.74021 0.646446 4.64645C0.740214 4.55268 0.867392 4.5 1 4.5L10.5 4.5C10.6326 4.5 10.7598 4.55268 10.8536 4.64645C10.9473 4.74021 11 4.86739 11 5Z" fill="black"/>
</svg>
